<?xml version="1.0" encoding="UTF-8"?>
<svg width="665px" height="249px" viewBox="0 0 665 249" version="1.1" xmlns="http://www.w3.org/2000/svg" xmlns:xlink="http://www.w3.org/1999/xlink">
    <!-- Generator: Sketch 61.2 (89653) - https://sketch.com -->
    <title>spoke-and-bird-signature</title>
    <desc>Created with Sketch.</desc>
    <g id="restaurants" stroke="none" stroke-width="1" fill="none" fill-rule="evenodd">
        <g id="spoke-and-bird-signature" transform="translate(1.000000, 1.000000)" fill="#1A0BA7" stroke="#1A0BA7">
            <path d="M98.0167102,0.186632477 C97.4221508,0.684948368 96.7525781,2.56378384 95.3040719,7.79831543 C93.7903975,13.2679783 90.5139839,26.4309003 88.5475112,34.9425048 C87.8938449,37.7718317 86.3273452,44.1255439 85.0664458,49.0618242 C82.0161741,61.0033185 78.4703812,75.4031713 77.1315664,81.2862518 C75.43282,88.7510238 71.2106216,108.884093 69.4974382,117.688412 C67.949747,125.642641 66.5244575,132.318598 65.0292609,138.618049 L64.2441192,141.925759 L62.4604777,142.075254 C57.8103508,142.465047 47.5239403,146.030036 42.6320222,148.947214 C38.7041831,151.289668 30.841415,157.746366 27.8209723,161.109444 C24.4257203,164.89037 20.5761272,170.065842 13.3882584,180.514234 C4.53286807,193.385918 3.01522624,195.885987 1.72203655,199.730033 C1.08479082,201.624372 1.42108547e-14,206.716053 1.42108547e-14,207.813086 C1.42108547e-14,208.900891 0.360813257,208.014258 0.864930578,205.688046 C2.40027878,198.603101 3.77222876,196.003368 13.168141,182.374613 C25.9468153,163.839477 29.0086585,160.243113 37.6307435,153.643196 C43.9985721,148.768559 47.9336481,146.874589 57.5136405,144.071839 C60.6457214,143.155676 63.8313991,142.752225 63.8313991,143.272319 C63.8313991,143.736307 59.3048127,161.616619 57.7283211,167.379735 C55.7914203,174.460619 53.1062232,183.570202 51.7598409,187.628339 C49.6769911,193.906381 45.6481301,204.118535 42.8969199,210.093896 C40.5300701,215.234301 35.4826887,224.40073 32.1843441,229.548887 C28.0423387,236.013336 22.2211668,246.099619 22.2211668,246.811657 C22.2211668,247.333966 22.6363849,246.824576 24.0286494,244.593228 C25.866108,241.648735 31.7944733,232.213585 33.5501593,229.439257 C37.7645699,222.779911 43.301999,212.289439 46.0873731,205.688046 C52.1114336,191.410742 55.9444592,179.277672 62.2003924,154.683384 C63.5938324,149.205231 64.8321765,144.34093 64.9522639,143.87362 L65.1706547,143.024269 L66.5946585,143.17081 C68.6283566,143.380103 71.724988,144.440593 73.6949138,145.602223 C76.498435,147.255524 80.9604776,152.049323 84.1927355,156.880772 C84.8742471,157.899552 86.5574913,161.047801 87.933225,163.877497 C92.2621025,172.780002 92.1733502,172.633461 93.232757,172.633461 C93.788524,172.633461 93.8992072,172.514603 94.2001421,171.593641 C94.3870508,171.02187 94.8882293,168.632907 95.313917,166.285285 C97.1075505,156.393161 97.9181129,153.89383 101.810429,146.25557 C104.16905,141.627138 106.737209,137.883494 109.623494,134.866653 C112.630419,131.723941 116.18433,129.228301 116.752256,129.860608 C116.848907,129.968392 117.637134,132.322289 118.503865,135.091449 C122.68874,148.461818 127.357859,159.879527 134.662472,174.603469 C142.232718,189.863378 147.340749,198.408204 158.152106,213.896969 C162.134203,219.601763 163.435732,221.23624 169.918762,228.670005 C176.489957,236.20528 177.012332,236.745307 177.374541,236.381351 C177.573278,236.181656 177.485848,235.948739 176.992862,235.368478 C176.641306,234.953953 175.083366,233.105386 173.531303,231.260879 C171.97924,229.416003 169.567206,226.577079 168.171268,224.95183 C164.535217,220.71836 162.80609,218.432013 158.523866,212.196051 C149.414085,198.930513 145.089836,191.811978 138.945761,179.966825 C130.512936,163.709177 124.511248,149.397913 119.529916,133.66848 C117.874003,128.439854 117.643783,129.068101 121.453372,128.4166 C124.677364,127.86513 130.345314,127.488994 132.888749,127.658052 C137.287056,127.950397 139.178222,128.472706 146.507227,131.421629 C148.903649,132.385778 151.942753,133.523046 153.260813,133.949013 C163.557693,137.275918 177.209967,137.849535 190.187048,135.500068 C202.035624,133.355095 217.07906,127.891338 229.684381,121.154845 C231.265832,120.309554 235.133315,118.13948 238.278584,116.331886 C243.425922,113.374104 244.721573,112.434686 243.65368,112.434686 C243.464861,112.434686 240.744619,113.877957 237.608534,115.641626 C224.775822,122.859085 214.845559,127.253863 203.149435,130.891938 C191.858868,134.403773 185.011424,135.508188 174.50148,135.512249 C162.945317,135.516678 157.695855,134.533704 146.834024,130.331609 C140.55818,127.903519 139.213047,127.480504 136.168579,126.976651 C132.368909,126.348404 123.135587,126.833062 119.169984,127.868821 C118.512902,128.040463 117.912648,128.110597 117.836019,128.024222 C117.759426,127.938216 117.19701,126.094448 116.58625,123.927327 C113.365968,112.501128 110.607337,98.9100238 108.721792,85.1812364 C107.233024,74.3412048 104.99416,57.4106455 104.683637,54.6437004 C104.214969,50.4681824 102.897571,35.7427632 102.60773,31.4398978 C102.473904,29.4532784 102.131201,25.7594657 101.846172,23.230974 C101.030798,15.9987494 100.654005,11.5467583 100.447296,6.70386608 C100.251497,2.11603778 99.8845856,0.136431765 99.230111,0.136431765 C99.0714516,0.136431765 98.8082806,0.0851236846 98.6452497,0.0223727947 C98.4822556,-0.0403780953 98.1993944,0.0334464811 98.0167102,0.186632477 M99.1026398,2.12194375 C99.2526664,2.62505824 99.4130891,4.88741238 99.4712777,7.32103954 C99.582218,11.9594377 99.9842849,17.3611819 100.647356,23.1217136 C100.876032,25.1079639 101.217045,28.9497948 101.405203,31.6587877 C101.860316,38.2125644 103.158979,52.5467133 103.705782,57.0518581 C104.096719,60.2724552 106.029285,74.8911978 107.52573,85.9471664 C109.341405,99.3614611 112.398619,114.376642 115.539113,125.303048 L116.500804,128.649516 L115.724662,128.975083 C114.234021,129.601115 112.073696,131.111197 110.45687,132.657452 C105.887046,137.027867 102.656588,141.863746 99.1008766,149.657038 C96.7302431,154.852811 95.9091009,157.686937 94.4416761,165.737876 C93.7798912,169.368938 93.253843,171.539011 93.0354154,171.539011 C92.9485366,171.539011 92.1124432,169.938125 91.1774218,167.981774 C90.2424005,166.025423 88.9948727,163.418677 88.405199,162.189498 C85.6176944,156.379134 80.7170334,149.821297 76.6137836,146.410602 C74.0452575,144.275964 69.8578841,142.468739 66.6884435,142.126931 C66.0431527,142.057536 65.483051,141.968208 65.4438177,141.928712 C65.4045478,141.889216 65.5158555,141.319659 65.6911192,140.663359 C66.4971265,137.643933 69.3977021,124.074607 70.6958143,117.250632 C72.3032003,108.800671 76.5183822,88.6107571 78.3508448,80.5841801 C79.0105358,77.6946861 81.17255,68.8781861 83.1553331,60.9922448 C85.1381162,53.1059345 87.4429569,43.846487 88.2772503,40.4151207 C95.0713176,12.4717802 98.0556496,1.23125023 98.6802216,1.23125023 C98.7664759,1.23125023 98.9565439,1.63211768 99.1026398,2.12194375" id="Fill-6" stroke-width="2"></path>
            <path d="M417.414732,54.1200135 C413.782495,54.5423403 407.773424,55.9595963 403.784551,57.3353969 C397.653289,59.4496216 389.79111,63.3778895 383.631508,67.4046139 C379.777709,69.9237689 373.375933,74.8695444 367.762142,79.6646741 C364.561622,82.3988789 356.237547,90.7317815 353.07052,94.3724527 C341.579417,107.582285 334.016091,120.733636 331.076147,132.617637 C330.18695,136.212041 329.993359,137.645213 330.000171,140.586694 C330.005872,143.072907 330.058135,143.482279 330.561252,144.982446 C331.86266,148.864817 334.22146,151.145233 339.236074,153.369759 C344.117824,155.535062 349.950234,156.7691 359.291953,157.613014 C362.121483,157.868408 364.877773,158.036081 372.240514,158.400296 C377.601826,158.665684 383.776518,158.743413 403.882083,158.798564 C428.307025,158.865558 431.774377,158.991035 439.512157,160.086271 C446.428459,161.065285 453.739674,163.047741 458.402437,165.207862 C459.205511,165.57985 460.83227,166.464849 462.017375,167.173662 C467.518177,170.465664 470.328937,173.255389 472.52911,177.608945 C474.433007,181.375463 474.328114,184.864007 472.182044,189.144276 C470.211162,193.075875 466.183277,196.982675 460.38988,200.581891 C458.448075,201.788169 458.374097,201.816299 458.003108,201.478734 C457.333634,200.869488 456.649806,198.264091 456.649806,196.32272 C456.649806,192.880443 458.65786,184.111888 460.191504,180.85764 C460.613284,179.963018 460.718176,179.554387 460.566174,179.40152 C460.218003,179.051 459.39027,179.99448 458.675526,181.55572 C458.319995,182.333008 457.634695,184.492019 457.152188,186.35344 C455.380051,193.195059 455.063532,196.732832 455.949417,199.796829 C456.20668,200.68627 456.543809,201.563125 456.698756,201.744862 C456.853335,201.9266 457.03699,202.176073 457.106182,202.299328 C457.255977,202.566567 454.416877,204.174814 447.790226,207.577117 C440.451408,211.345115 435.056235,213.528556 429.681673,214.905837 C425.544111,215.96591 418.701785,217.352445 415.27271,217.82511 C405.649068,219.151683 395.052314,219.159456 389.059805,217.843987 C386.836813,217.356146 383.005464,216.04512 383.03638,215.782692 C383.069872,215.496576 384.657618,215.001703 386.552314,214.687086 C387.796306,214.480179 390.335081,214.412074 396.774765,214.412074 C404.088188,214.412444 405.642811,214.463523 407.396545,214.760743 C411.291934,215.421808 412.12482,215.274124 412.12482,213.922382 C412.12482,213.122145 411.759352,212.790502 410.486284,212.4348 C408.148093,211.781507 405.282495,211.576081 398.527396,211.577562 C389.398774,211.579412 385.855605,211.912536 382.568226,213.078839 C381.25541,213.544842 380.920489,213.758411 380.377622,214.476108 C379.991175,214.987637 379.737224,215.550986 379.737224,215.897065 C379.737224,217.403154 384.078315,219.369694 389.375588,220.263205 C396.775869,221.511679 409.204751,221.142652 418.777603,219.390421 C425.748008,218.114558 432.220816,216.507792 436.204904,215.064256 C440.935387,213.35052 448.316898,209.823111 455.490096,205.848205 L458.516899,204.171113 L460.455392,205.139392 C462.378428,206.099899 462.413024,206.108782 464.730604,206.219823 C469.314237,206.439685 473.03186,205.385164 482.64446,201.139688 C484.465179,200.335379 487.248336,199.17833 488.829089,198.568344 C491.617399,197.491984 504.624111,193.630341 506.984016,193.178033 C507.626622,193.054777 508.362712,192.908573 508.619608,192.852682 C509.019305,192.76607 508.962994,192.87378 508.230216,193.597769 C506.845631,194.965056 506.267432,195.970719 505.976676,197.516043 L505.713524,198.915162 L506.348034,199.967833 C507.189017,201.362881 507.511056,201.634191 509.156586,202.33227 C511.059379,203.13954 513.58932,203.441202 517.09679,203.279082 C521.734525,203.064402 525.172802,202.328199 528.677695,200.799532 C532.666199,199.059886 534.345589,197.96724 535.40151,196.425248 C536.240653,195.199723 536.242493,194.48906 535.407399,194.106338 C534.697072,193.780987 534.082805,194.146312 533.472586,195.257465 C532.813785,196.45671 531.720692,197.26509 529.009304,198.55761 C526.604497,199.704295 524.301271,200.464557 521.851932,200.920196 C519.684514,201.323276 514.405276,201.497241 512.435867,201.230742 C509.300123,200.806194 507.537187,199.495168 507.790402,197.77662 C507.951606,196.681013 509.066783,195.101267 510.264769,194.271419 C511.298976,193.555203 513.400513,192.780505 514.322098,192.776064 C514.609541,192.774583 515.075118,192.68575 515.356673,192.57804 C515.786181,192.413699 515.858686,192.27971 515.80716,191.745601 L515.746432,191.108965 L512.241539,191.12303 C507.44444,191.142277 507.356845,191.162265 494.522378,195.153826 C491.129739,196.208718 487.122096,197.768477 482.64446,199.776472 C477.418957,202.119812 475.725581,202.820482 473.39512,203.604433 C468.006573,205.416625 463.577886,205.578005 460.899255,204.059702 L459.760523,203.414552 L461.755695,202.165339 C466.331231,199.301586 470.574791,195.525444 472.581373,192.533624 C475.173882,188.667539 476.385486,184.268086 475.800295,180.845056 C475.489296,179.02472 475.134501,178.029421 474.119801,176.128765 C471.728244,171.649363 468.373882,168.426577 462.560242,165.023164 C454.307568,160.19139 441.689143,157.339852 426.371476,156.844608 C424.551125,156.785757 413.506829,156.696183 401.829128,156.645845 C390.151427,156.595136 378.322459,156.464477 375.542614,156.355287 C354.186064,155.516555 345.747159,154.23588 338.749519,150.771765 C335.188683,149.0088 333.416914,147.162925 332.455948,144.214781 C330.497212,138.20486 334.244279,125.129018 341.317001,113.293875 C348.170368,101.825539 359.331702,88.8274247 370.293556,79.548451 C380.138025,71.2151782 386.18979,67.0407689 394.438047,62.8941199 C401.769505,59.2086621 407.223196,57.335767 414.883318,55.8729841 C417.896503,55.2977907 422.138958,55.2470818 424.326986,55.7600922 C430.295204,57.1599518 433.282258,58.6641901 436.324886,61.8025848 C440.572126,66.1827905 443.488147,73.1998548 445.854309,84.7337054 C446.846558,89.56918 447.618717,92.2737738 447.920882,91.969891 C448.052642,91.8373818 448.015838,91.2670001 447.808996,90.2332065 C447.639696,89.3863322 447.329065,87.5041836 447.118544,86.0499139 C445.903627,77.6585295 443.141817,69.2230988 440.052079,64.4675739 C436.607913,59.1672067 432.748225,56.5218349 425.938655,54.7955142 C423.108757,54.0778179 419.938785,53.8268647 417.414732,54.1200135 M592.268519,68.0360683 C592.19491,68.1559928 592.057997,71.090812 591.963778,74.5575186 C591.869926,78.0242253 591.660877,82.9755529 591.498937,85.5605923 C590.95423,94.2495671 590.817685,96.8997507 590.710952,100.834681 C590.58913,105.322967 590.465466,107.610416 590.337387,107.738853 C590.288437,107.788082 587.417317,108.216701 583.957326,108.691217 C568.889929,110.758434 544.137796,115.333332 534.244377,117.879507 C519.71359,121.619375 515.710364,123.004059 514.337924,124.764432 C513.118223,126.329373 513.118223,126.541462 514.339396,127.72257 C514.802397,128.170436 515.362561,128.455812 516.156434,128.647914 C517.546541,128.984739 525.424177,129.938953 531.421103,130.49712 C536.468841,130.967194 544.240848,132.051697 547.777025,132.779757 C557.165486,134.712985 564.969513,138.728605 569.745634,144.084122 C571.428704,145.971083 573.886877,149.710951 574.95936,152.015426 C576.039573,154.336928 577.512489,158.441011 578.34243,161.442085 C579.391359,165.234142 580.271355,167.996477 581.991229,172.897466 C584.555399,180.204348 586.623444,184.172961 588.946176,186.24388 C589.894628,187.090014 589.970446,187.119995 590.894975,187.016356 C592.041435,186.887919 592.210736,186.735422 592.764644,185.332231 C593.476075,183.530032 593.493373,179.687266 592.824635,172.016539 L592.269623,165.652027 L592.339184,137.845457 C592.377828,122.551381 592.434139,110.011127 592.464687,109.977814 C592.669688,109.753881 606.681531,108.306644 612.697228,107.887649 C615.043883,107.724418 618.329421,107.4594 619.999242,107.29913 C625.537951,106.767613 635.823338,106.222771 640.364646,106.22055 C643.581728,106.219069 646.268825,106.083969 649.905846,105.740852 C652.690107,105.478425 656.151203,105.211185 657.596884,105.146781 C660.719378,105.00798 661.320764,104.924329 662.183829,104.510515 C663.294957,103.977888 663.271034,103.371232 662.115373,102.784565 C660.915178,102.175319 656.954277,102.17828 650.587098,102.793078 C647.105391,103.129163 643.461745,103.343102 640.169951,103.405285 C634.458627,103.512625 624.922212,104.096702 619.822212,104.651538 C617.947758,104.855483 615.143991,105.119761 613.591209,105.238946 C608.652781,105.617596 594.28467,107.186979 592.773845,107.5127 L592.304219,107.614117 L592.433403,101.874397 C592.504804,98.7178654 592.695819,93.3590166 592.858127,89.9667076 C593.158084,83.6950999 593.235005,71.5109179 592.989151,69.2249495 C592.86144,68.0364384 592.567004,67.5508182 592.268519,68.0360683 M590.421669,120.563743 C590.425349,143.762473 590.641024,164.041189 590.923314,167.70814 C591.076421,169.70096 591.341046,173.137315 591.511082,175.345555 C591.942431,180.942032 591.703202,184.60195 590.861483,185.273379 C590.108095,185.874482 587.573,182.618014 585.653277,178.583516 C583.978304,175.06314 581.312186,167.676308 579.395775,161.247022 C577.350181,154.385416 575.751025,150.719945 573.048102,146.698033 C568.118507,139.36339 560.299758,134.519773 549.121126,131.876252 C545.973604,131.132276 537.975617,129.95894 530.411555,129.132053 C526.761653,128.733045 518.178474,127.37131 516.719911,126.960087 C516.291507,126.839422 515.829242,126.648802 515.692698,126.53702 C515.083583,126.037705 516.998153,124.901753 520.346627,123.775055 C523.978128,122.553232 536.486139,119.355615 542.358298,118.147857 C554.17696,115.717535 573.759901,112.355947 583.312879,111.117838 C586.739746,110.674043 589.631476,110.278366 589.738577,110.238761 C590.424981,109.986328 590.419829,109.909709 590.421669,120.563743" id="Fill-7"></path>
        </g>
    </g>
</svg>