<?xml version="1.0" encoding="UTF-8"?>
<svg width="1676px" height="558px" viewBox="0 0 1676 558" version="1.1" xmlns="http://www.w3.org/2000/svg" xmlns:xlink="http://www.w3.org/1999/xlink">
    <!-- Generator: Sketch 61.2 (89653) - https://sketch.com -->
    <title>logo-stacked-dark-fulltext</title>
    <desc>Created with Sketch.</desc>
    <g id="logo" stroke="none" stroke-width="1" fill="none" fill-rule="evenodd">
        <g id="logo-stacked-dark-fulltext" transform="translate(-5.000000, 0.000000)">
            <g id="logo-symbol" transform="translate(692.000000, 0.000000)" fill="#E9B776" fill-rule="nonzero">
                <path d="M81.791,71.59 C84.188,74.729 88.675,75.328 91.812,72.932 C109.373,59.515 130.361,52.424 152.508,52.424 C207.696,52.424 252.594,97.32 252.594,152.508 C252.594,207.695 207.697,252.591 152.508,252.591 C97.323,252.591 52.425,207.694 52.425,152.508 C52.425,130.36 59.516,109.371 72.934,91.81 C75.331,88.675 74.731,84.186 71.593,81.79 C68.456,79.393 63.969,79.993 61.572,83.131 C46.234,103.206 38.128,127.195 38.128,152.507 C38.128,215.577 89.439,266.888 152.507,266.888 C215.577,266.888 266.89,215.576 266.89,152.507 C266.89,89.438 215.578,38.125 152.507,38.125 C127.196,38.125 103.206,46.23 83.133,61.567 C79.996,63.967 79.394,68.453 81.791,71.59 L81.791,71.59 Z M152.508,0 C68.417,0 0,68.414 0,152.508 C0,236.602 68.415,305.016 152.508,305.016 C236.603,305.016 305.019,236.602 305.019,152.508 C305.019,68.414 236.603,0 152.508,0 Z M152.508,290.718 C76.3,290.718 14.298,228.718 14.298,152.507 C14.298,76.298 76.299,14.296 152.508,14.296 C228.718,14.296 290.721,76.297 290.721,152.507 C290.721,228.717 228.718,290.718 152.508,290.718 Z" id="Shape"></path>
            </g>
            <text id="shelter路in路plates" font-family="STHeitiSC-Light, Heiti SC" font-size="190" font-weight="300" fill="#000000">
                <tspan x="0" y="532">shelter路in路plates</tspan>
            </text>
        </g>
    </g>
</svg>