<?xml version="1.0" encoding="UTF-8"?>
<svg width="1677px" height="558px" viewBox="0 0 1677 558" version="1.1" xmlns="http://www.w3.org/2000/svg" xmlns:xlink="http://www.w3.org/1999/xlink">
    <!-- Generator: Sketch 61.2 (89653) - https://sketch.com -->
    <title>logo-stacked-dark-fulltext</title>
    <desc>Created with Sketch.</desc>
    <g id="logo" stroke="none" stroke-width="1" fill="none" fill-rule="evenodd">
        <g id="logo-stacked-dark-fulltext" transform="translate(-4.000000, 0.000000)" fill-rule="nonzero">
            <g id="logo-symbol" transform="translate(692.000000, 0.000000)" fill="#E9B776">
                <path d="M81.791,71.59 C84.188,74.729 88.675,75.328 91.812,72.932 C109.373,59.515 130.361,52.424 152.508,52.424 C207.696,52.424 252.594,97.32 252.594,152.508 C252.594,207.695 207.697,252.591 152.508,252.591 C97.323,252.591 52.425,207.694 52.425,152.508 C52.425,130.36 59.516,109.371 72.934,91.81 C75.331,88.675 74.731,84.186 71.593,81.79 C68.456,79.393 63.969,79.993 61.572,83.131 C46.234,103.206 38.128,127.195 38.128,152.507 C38.128,215.577 89.439,266.888 152.507,266.888 C215.577,266.888 266.89,215.576 266.89,152.507 C266.89,89.438 215.578,38.125 152.507,38.125 C127.196,38.125 103.206,46.23 83.133,61.567 C79.996,63.967 79.394,68.453 81.791,71.59 L81.791,71.59 Z M152.508,0 C68.417,0 0,68.414 0,152.508 C0,236.602 68.415,305.016 152.508,305.016 C236.603,305.016 305.019,236.602 305.019,152.508 C305.019,68.414 236.603,0 152.508,0 Z M152.508,290.718 C76.3,290.718 14.298,228.718 14.298,152.507 C14.298,76.298 76.299,14.296 152.508,14.296 C228.718,14.296 290.721,76.297 290.721,152.507 C290.721,228.717 228.718,290.718 152.508,290.718 Z" id="Shape"></path>
            </g>
            <path d="M34.77,524.02 C43.3833333,524.02 50.635,521.106667 56.525,515.28 C62.415,509.453333 65.36,502.296667 65.36,493.81 C65.36,487.096667 63.365,481.428333 59.375,476.805 C55.385,472.181667 49.59,467.875 41.99,463.885 C34.39,459.895 29.0383333,456.475 25.935,453.625 C22.8316667,450.775 21.28,447.355 21.28,443.365 C21.28,439.375 22.7366667,436.018333 25.65,433.295 C28.5633333,430.571667 32.1733333,429.21 36.48,429.21 C43.0666667,429.21 49.8433333,432.566667 56.81,439.28 L56.81,439.28 L65.17,430.73 C55.9233333,421.61 46.9616667,417.05 38.285,417.05 C29.6083333,417.05 22.6416667,419.583333 17.385,424.65 C12.1283333,429.716667 9.5,435.828333 9.5,442.985 C9.5,450.141667 11.3683333,455.968333 15.105,460.465 C18.8416667,464.961667 24.4783333,469.11 32.015,472.91 C39.5516667,476.71 44.935,480.098333 48.165,483.075 C51.395,486.051667 53.01,489.851667 53.01,494.475 C53.01,499.098333 51.1733333,503.12 47.5,506.54 C43.8266667,509.96 39.3933333,511.67 34.2,511.67 C26.8533333,511.67 19.8233333,507.933333 13.11,500.46 L13.11,500.46 L4.94,509.58 C8.61333333,514.14 13.0783333,517.686667 18.335,520.22 C23.5916667,522.753333 29.07,524.02 34.77,524.02 Z M101.27,520.6 L101.270491,482.851951 C101.289486,469.433362 101.859322,460.482712 102.98,456 C104.12,451.44 106.336667,447.006667 109.63,442.7 C112.923333,438.393333 116.913333,435.036667 121.6,432.63 C126.286667,430.223333 131.195,429.02 136.325,429.02 C141.455,429.02 145.825,429.938333 149.435,431.775 C153.045,433.611667 155.926667,436.303333 158.08,439.85 C160.233333,443.396667 161.626667,447.133333 162.26,451.06 C162.893333,454.986667 163.21,462.143333 163.21,472.53 L163.21,520.6 L176.32,520.6 L176.32,468.73 C176.32,455.81 175.053333,446.025 172.52,439.375 C169.986667,432.725 165.68,427.341667 159.6,423.225 C153.52,419.108333 146.68,417.05 139.08,417.05 C124.26,417.05 111.656667,423.953333 101.27,437.76 L101.27,437.76 L101.27,380.76 L88.16,380.76 L88.16,520.6 L101.27,520.6 Z M251.75,524.02 C273.03,524.02 289.116667,513.886667 300.01,493.62 L300.01,493.62 L288.99,487.92 C280.503333,504.006667 267.71,512.05 250.61,512.05 C240.223333,512.05 231.388333,508.345 224.105,500.935 C216.821667,493.525 212.99,483.74 212.61,471.58 L212.61,471.58 L303.43,471.58 C303.05,454.733333 297.888333,441.433333 287.945,431.68 C278.001667,421.926667 265.715,417.05 251.085,417.05 C236.455,417.05 224.168333,422.306667 214.225,432.82 C204.281667,443.333333 199.31,455.936667 199.31,470.63 C199.31,485.323333 204.25,497.895 214.13,508.345 C224.01,518.795 236.55,524.02 251.75,524.02 Z M288.99,460.37 L213.94,460.37 C219.766667,439.85 232.18,429.59 251.18,429.59 C260.426667,429.59 268.596667,432.313333 275.69,437.76 C282.783333,443.206667 287.216667,450.743333 288.99,460.37 L288.99,460.37 Z M338.58,520.6 L338.58,380.76 L325.66,380.76 L325.66,520.6 L338.58,520.6 Z M393.49,524.02 C396.53,524.02 400.71,523.576667 406.03,522.69 L406.03,522.69 L406.03,511.67 L398.24,511.67 C394.566667,511.67 392.286667,511.353333 391.4,510.72 C390.513333,510.086667 390.07,508.06 390.07,504.64 L390.07,504.64 L390.07,430.73 L410.59,430.73 L410.59,419.71 L390.07,419.71 L390.07,380.76 L376.96,380.76 L376.96,419.71 L359.1,419.71 L359.1,430.73 L376.96,430.73 L376.96,506.73 C376.96,512.683333 378.29,517.053333 380.95,519.84 C383.61,522.626667 387.79,524.02 393.49,524.02 Z M477.66,524.02 C498.94,524.02 515.026667,513.886667 525.92,493.62 L525.92,493.62 L514.9,487.92 C506.413333,504.006667 493.62,512.05 476.52,512.05 C466.133333,512.05 457.298333,508.345 450.015,500.935 C442.731667,493.525 438.9,483.74 438.52,471.58 L438.52,471.58 L529.34,471.58 C528.96,454.733333 523.798333,441.433333 513.855,431.68 C503.911667,421.926667 491.625,417.05 476.995,417.05 C462.365,417.05 450.078333,422.306667 440.135,432.82 C430.191667,443.333333 425.22,455.936667 425.22,470.63 C425.22,485.323333 430.16,497.895 440.04,508.345 C449.92,518.795 462.46,524.02 477.66,524.02 Z M514.9,460.37 L439.85,460.37 C445.676667,439.85 458.09,429.59 477.09,429.59 C486.336667,429.59 494.506667,432.313333 501.6,437.76 C508.693333,443.206667 513.126667,450.743333 514.9,460.37 L514.9,460.37 Z M561.83,520.6 L561.83,486.4 C561.83,469.553333 562.653333,457.931667 564.3,451.535 C565.946667,445.138333 568.511667,439.913333 571.995,435.86 C575.478333,431.806667 579.183333,429.78 583.11,429.78 C585.136667,429.78 587.1,430.35 589,431.49 L589,431.49 L595.84,420.47 C591.66,418.19 587.511667,417.05 583.395,417.05 C579.278333,417.05 575.541667,418.443333 572.185,421.23 C568.828333,424.016667 565.376667,428.386667 561.83,434.34 L561.83,434.34 L561.83,419.71 L548.53,419.71 L548.53,520.6 L561.83,520.6 Z M699.58,470.82 L699.58,452.58 L681.72,452.58 L681.72,470.82 L699.58,470.82 Z M805.315,402.23 C808.291667,402.23 810.825,401.185 812.915,399.095 C815.005,397.005 816.05,394.471667 816.05,391.495 C816.05,388.518333 815.005,385.985 812.915,383.895 C810.825,381.805 808.291667,380.76 805.315,380.76 C802.338333,380.76 799.805,381.836667 797.715,383.99 C795.625,386.143333 794.58,388.676667 794.58,391.59 C794.58,394.376667 795.625,396.846667 797.715,399 C799.805,401.153333 802.338333,402.23 805.315,402.23 Z M811.87,520.6 L811.87,419.71 L798.76,419.71 L798.76,520.6 L811.87,520.6 Z M851.77,520.6 L851.770491,482.851951 C851.789486,469.433362 852.359322,460.482712 853.48,456 C854.62,451.44 856.836667,447.006667 860.13,442.7 C863.423333,438.393333 867.413333,435.036667 872.1,432.63 C876.786667,430.223333 881.568333,429.02 886.445,429.02 C891.321667,429.02 895.47,429.78 898.89,431.3 C902.31,432.82 905.128333,435.036667 907.345,437.95 C909.561667,440.863333 911.208333,444.41 912.285,448.59 C913.361667,452.77 913.9,460.75 913.9,472.53 L913.9,472.53 L913.9,520.6 L926.82,520.6 L926.82,468.73 C926.82,455.81 925.553333,446.025 923.02,439.375 C920.486667,432.725 916.18,427.341667 910.1,423.225 C904.02,419.108333 897.18,417.05 889.58,417.05 C874.76,417.05 862.156667,423.953333 851.77,437.76 L851.77,437.76 L851.77,419.71 L838.66,419.71 L838.66,520.6 L851.77,520.6 Z M1043.48,470.82 L1043.48,452.58 L1025.62,452.58 L1025.62,470.82 L1043.48,470.82 Z M1157.67,557.46 L1157.67,503.31 C1169.19667,517.116667 1182.68667,524.02 1198.14,524.02 C1212.32667,524.02 1224.48667,518.763333 1234.62,508.25 C1244.75333,497.736667 1249.82,485.133333 1249.82,470.44 C1249.82,455.746667 1244.69,443.175 1234.43,432.725 C1224.17,422.275 1211.94667,417.05 1197.76,417.05 C1181.29333,417.05 1167.93,424.08 1157.67,438.14 L1157.67,438.14 L1157.67,419.71 L1144.75,419.71 L1144.75,557.46 L1157.67,557.46 Z M1196.715,512.05 C1185.75833,512.05 1176.35333,508.091667 1168.5,500.175 C1160.64667,492.258333 1156.72,482.473333 1156.72,470.82 C1156.72,459.166667 1160.55167,449.381667 1168.215,441.465 C1175.87833,433.548333 1185.34667,429.59 1196.62,429.59 C1207.89333,429.59 1217.425,433.611667 1225.215,441.655 C1233.005,449.698333 1236.9,459.356667 1236.9,470.63 C1236.9,482.156667 1232.94167,491.941667 1225.025,499.985 C1217.10833,508.028333 1207.67167,512.05 1196.715,512.05 Z M1285.16,520.6 L1285.16,380.76 L1272.24,380.76 L1272.24,520.6 L1285.16,520.6 Z M1360.4,524.02 C1375.22,524.02 1388.39333,517.116667 1399.92,503.31 L1399.92,503.31 L1399.92,520.6 L1412.65,520.6 L1412.65,419.71 L1399.92,419.71 L1399.92,438.14 C1389.66,424.08 1376.29667,417.05 1359.83,417.05 C1345.51667,417.05 1333.23,422.275 1322.97,432.725 C1312.71,443.175 1307.58,455.715 1307.58,470.345 C1307.58,484.975 1312.67833,497.578333 1322.875,508.155 C1333.07167,518.731667 1345.58,524.02 1360.4,524.02 Z M1360.685,512.05 C1349.72833,512.05 1340.32333,507.965 1332.47,499.795 C1324.61667,491.625 1320.69,481.966667 1320.69,470.82 C1320.69,459.673333 1324.55333,450.015 1332.28,441.845 C1340.00667,433.675 1349.475,429.59 1360.685,429.59 C1371.895,429.59 1381.36333,433.548333 1389.09,441.465 C1396.81667,449.381667 1400.68,459.103333 1400.68,470.63 C1400.68,482.536667 1396.75333,492.416667 1388.9,500.27 C1381.04667,508.123333 1371.64167,512.05 1360.685,512.05 Z M1469.84,524.02 C1472.88,524.02 1477.06,523.576667 1482.38,522.69 L1482.38,522.69 L1482.38,511.67 L1474.59,511.67 C1470.91667,511.67 1468.63667,511.353333 1467.75,510.72 C1466.86333,510.086667 1466.42,508.06 1466.42,504.64 L1466.42,504.64 L1466.42,430.73 L1486.94,430.73 L1486.94,419.71 L1466.42,419.71 L1466.42,380.76 L1453.31,380.76 L1453.31,419.71 L1435.45,419.71 L1435.45,430.73 L1453.31,430.73 L1453.31,506.73 C1453.31,512.683333 1454.64,517.053333 1457.3,519.84 C1459.96,522.626667 1464.14,524.02 1469.84,524.02 Z M1554.01,524.02 C1575.29,524.02 1591.37667,513.886667 1602.27,493.62 L1602.27,493.62 L1591.25,487.92 C1582.76333,504.006667 1569.97,512.05 1552.87,512.05 C1542.48333,512.05 1533.64833,508.345 1526.365,500.935 C1519.08167,493.525 1515.25,483.74 1514.87,471.58 L1514.87,471.58 L1605.69,471.58 C1605.31,454.733333 1600.14833,441.433333 1590.205,431.68 C1580.26167,421.926667 1567.975,417.05 1553.345,417.05 C1538.715,417.05 1526.42833,422.306667 1516.485,432.82 C1506.54167,443.333333 1501.57,455.936667 1501.57,470.63 C1501.57,485.323333 1506.51,497.895 1516.39,508.345 C1526.27,518.795 1538.81,524.02 1554.01,524.02 Z M1591.25,460.37 L1516.2,460.37 C1522.02667,439.85 1534.44,429.59 1553.44,429.59 C1562.68667,429.59 1570.85667,432.313333 1577.95,437.76 C1585.04333,443.206667 1589.47667,450.743333 1591.25,460.37 L1591.25,460.37 Z M1650.15,524.02 C1658.76333,524.02 1666.015,521.106667 1671.905,515.28 C1677.795,509.453333 1680.74,502.296667 1680.74,493.81 C1680.74,487.096667 1678.745,481.428333 1674.755,476.805 C1670.765,472.181667 1664.97,467.875 1657.37,463.885 C1649.77,459.895 1644.41833,456.475 1641.315,453.625 C1638.21167,450.775 1636.66,447.355 1636.66,443.365 C1636.66,439.375 1638.11667,436.018333 1641.03,433.295 C1643.94333,430.571667 1647.55333,429.21 1651.86,429.21 C1658.44667,429.21 1665.22333,432.566667 1672.19,439.28 L1672.19,439.28 L1680.55,430.73 C1671.30333,421.61 1662.34167,417.05 1653.665,417.05 C1644.98833,417.05 1638.02167,419.583333 1632.765,424.65 C1627.50833,429.716667 1624.88,435.828333 1624.88,442.985 C1624.88,450.141667 1626.74833,455.968333 1630.485,460.465 C1634.22167,464.961667 1639.85833,469.11 1647.395,472.91 C1654.93167,476.71 1660.315,480.098333 1663.545,483.075 C1666.775,486.051667 1668.39,489.851667 1668.39,494.475 C1668.39,499.098333 1666.55333,503.12 1662.88,506.54 C1659.20667,509.96 1654.77333,511.67 1649.58,511.67 C1642.23333,511.67 1635.20333,507.933333 1628.49,500.46 L1628.49,500.46 L1620.32,509.58 C1623.99333,514.14 1628.45833,517.686667 1633.715,520.22 C1638.97167,522.753333 1644.45,524.02 1650.15,524.02 Z" id="shelter·in·plates" fill="#000000"></path>
        </g>
    </g>
</svg>