<?xml version="1.0" encoding="UTF-8"?>
<svg width="795px" height="660px" viewBox="0 0 795 660" version="1.1" xmlns="http://www.w3.org/2000/svg" xmlns:xlink="http://www.w3.org/1999/xlink">
    <!-- Generator: Sketch 61.2 (89653) - https://sketch.com -->
    <title>logo-light-fulltext</title>
    <desc>Created with Sketch.</desc>
    <g id="logo" stroke="none" stroke-width="1" fill="none" fill-rule="evenodd">
        <g id="logo-light-fulltext" transform="translate(-2.000000, 0.000000)" fill-rule="nonzero">
            <path d="M16.47,643.22 C20.55,643.22 23.985,641.84 26.775,639.08 C29.565,636.32 30.96,632.93 30.96,628.91 C30.96,625.73 30.015,623.045 28.125,620.855 C26.235,618.665 23.49,616.625 19.89,614.735 C16.29,612.845 13.755,611.225 12.285,609.875 C10.815,608.525 10.08,606.905 10.08,605.015 C10.08,603.125 10.77,601.535 12.15,600.245 C13.53,598.955 15.24,598.31 17.28,598.31 C20.4,598.31 23.61,599.9 26.91,603.08 L26.91,603.08 L30.87,599.03 C26.49,594.71 22.245,592.55 18.135,592.55 C14.025,592.55 10.725,593.75 8.235,596.15 C5.745,598.55 4.5,601.445 4.5,604.835 C4.5,608.225 5.385,610.985 7.155,613.115 C8.925,615.245 11.595,617.21 15.165,619.01 C18.735,620.81 21.285,622.415 22.815,623.825 C24.345,625.235 25.11,627.035 25.11,629.225 C25.11,631.415 24.24,633.32 22.5,634.94 C20.76,636.56 18.66,637.37 16.2,637.37 C12.72,637.37 9.39,635.6 6.21,632.06 L6.21,632.06 L2.34,636.38 C4.08,638.54 6.195,640.22 8.685,641.42 C11.175,642.62 13.77,643.22 16.47,643.22 Z M47.97,641.6 L47.970625,623.510069 C47.9852083,617.270023 48.255,613.1 48.78,611 C49.32,608.84 50.37,606.74 51.93,604.7 C53.49,602.66 55.38,601.07 57.6,599.93 C59.82,598.79 62.145,598.22 64.575,598.22 C67.005,598.22 69.075,598.655 70.785,599.525 C72.495,600.395 73.86,601.67 74.88,603.35 C75.9,605.03 76.56,606.8 76.86,608.66 C77.16,610.52 77.31,613.91 77.31,618.83 L77.31,618.83 L77.31,641.6 L83.52,641.6 L83.52,617.03 C83.52,610.91 82.92,606.275 81.72,603.125 C80.52,599.975 78.48,597.425 75.6,595.475 C72.72,593.525 69.48,592.55 65.88,592.55 C58.86,592.55 52.89,595.82 47.97,602.36 L47.97,602.36 L47.97,575.36 L41.76,575.36 L41.76,641.6 L47.97,641.6 Z M119.25,643.22 C129.33,643.22 136.95,638.42 142.11,628.82 L142.11,628.82 L136.89,626.12 C132.87,633.74 126.81,637.55 118.71,637.55 C113.79,637.55 109.605,635.795 106.155,632.285 C102.705,628.775 100.89,624.14 100.71,618.38 L100.71,618.38 L143.73,618.38 C143.55,610.4 141.105,604.1 136.395,599.48 C131.685,594.86 125.865,592.55 118.935,592.55 C112.005,592.55 106.185,595.04 101.475,600.02 C96.765,605 94.41,610.97 94.41,617.93 C94.41,624.89 96.75,630.845 101.43,635.795 C106.11,640.745 112.05,643.22 119.25,643.22 Z M136.89,613.07 L101.34,613.07 C104.1,603.35 109.98,598.49 118.98,598.49 C123.36,598.49 127.23,599.78 130.59,602.36 C133.95,604.94 136.05,608.51 136.89,613.07 L136.89,613.07 Z M160.38,641.6 L160.38,575.36 L154.26,575.36 L154.26,641.6 L160.38,641.6 Z M186.39,643.22 C187.83,643.22 189.81,643.01 192.33,642.59 L192.33,642.59 L192.33,637.37 L188.64,637.37 C186.9,637.37 185.82,637.22 185.4,636.92 C184.98,636.62 184.77,635.66 184.77,634.04 L184.77,634.04 L184.77,599.03 L194.49,599.03 L194.49,593.81 L184.77,593.81 L184.77,575.36 L178.56,575.36 L178.56,593.81 L170.1,593.81 L170.1,599.03 L178.56,599.03 L178.56,635.03 C178.56,637.85 179.19,639.92 180.45,641.24 C181.71,642.56 183.69,643.22 186.39,643.22 Z M226.26,643.22 C236.34,643.22 243.96,638.42 249.12,628.82 L249.12,628.82 L243.9,626.12 C239.88,633.74 233.82,637.55 225.72,637.55 C220.8,637.55 216.615,635.795 213.165,632.285 C209.715,628.775 207.9,624.14 207.72,618.38 L207.72,618.38 L250.74,618.38 C250.56,610.4 248.115,604.1 243.405,599.48 C238.695,594.86 232.875,592.55 225.945,592.55 C219.015,592.55 213.195,595.04 208.485,600.02 C203.775,605 201.42,610.97 201.42,617.93 C201.42,624.89 203.76,630.845 208.44,635.795 C213.12,640.745 219.06,643.22 226.26,643.22 Z M243.9,613.07 L208.35,613.07 C211.11,603.35 216.99,598.49 225.99,598.49 C230.37,598.49 234.24,599.78 237.6,602.36 C240.96,604.94 243.06,608.51 243.9,613.07 L243.9,613.07 Z M266.13,641.6 L266.130731,624.806141 C266.149744,617.146297 266.5395,611.83925 267.3,608.885 C268.08,605.855 269.295,603.38 270.945,601.46 C272.595,599.54 274.35,598.58 276.21,598.58 C277.17,598.58 278.1,598.85 279,599.39 L279,599.39 L282.24,594.17 C280.26,593.09 278.295,592.55 276.345,592.55 C274.395,592.55 272.625,593.21 271.035,594.53 C269.445,595.85 267.81,597.92 266.13,600.74 L266.13,600.74 L266.13,593.81 L259.83,593.81 L259.83,641.6 L266.13,641.6 Z M331.38,618.02 L331.38,609.38 L322.92,609.38 L322.92,618.02 L331.38,618.02 Z M381.465,585.53 C382.875,585.53 384.075,585.035 385.065,584.045 C386.055,583.055 386.55,581.855 386.55,580.445 C386.55,579.035 386.055,577.835 385.065,576.845 C384.075,575.855 382.875,575.36 381.465,575.36 C380.055,575.36 378.855,575.87 377.865,576.89 C376.875,577.91 376.38,579.11 376.38,580.49 C376.38,581.81 376.875,582.98 377.865,584 C378.855,585.02 380.055,585.53 381.465,585.53 Z M384.57,641.6 L384.57,593.81 L378.36,593.81 L378.36,641.6 L384.57,641.6 Z M403.47,641.6 L403.47,624.05 C403.47,617.51 403.74,613.16 404.28,611 C404.82,608.84 405.87,606.74 407.43,604.7 C408.99,602.66 410.88,601.07 413.1,599.93 C415.32,598.79 417.585,598.22 419.895,598.22 C422.205,598.22 424.17,598.58 425.79,599.3 C427.41,600.02 428.745,601.07 429.795,602.45 C430.845,603.83 431.625,605.51 432.135,607.49 C432.645,609.47 432.9,613.25 432.9,618.83 L432.9,618.83 L432.9,641.6 L439.02,641.6 L439.02,617.03 C439.02,610.91 438.42,606.275 437.22,603.125 C436.02,599.975 433.98,597.425 431.1,595.475 C428.22,593.525 424.98,592.55 421.38,592.55 C414.36,592.55 408.39,595.82 403.47,602.36 L403.47,602.36 L403.47,593.81 L397.26,593.81 L397.26,641.6 L403.47,641.6 Z M494.28,618.02 L494.28,609.38 L485.82,609.38 L485.82,618.02 L494.28,618.02 Z M548.37,659.06 L548.37,633.41 C553.83,639.95 560.22,643.22 567.54,643.22 C574.26,643.22 580.02,640.73 584.82,635.75 C589.62,630.77 592.02,624.8 592.02,617.84 C592.02,610.88 589.59,604.925 584.73,599.975 C579.87,595.025 574.08,592.55 567.36,592.55 C559.56,592.55 553.23,595.88 548.37,602.54 L548.37,602.54 L548.37,593.81 L542.25,593.81 L542.25,659.06 L548.37,659.06 Z M566.865,637.55 C561.675,637.55 557.22,635.675 553.5,631.925 C549.78,628.175 547.92,623.54 547.92,618.02 C547.92,612.5 549.735,607.865 553.365,604.115 C556.995,600.365 561.48,598.49 566.82,598.49 C572.16,598.49 576.675,600.395 580.365,604.205 C584.055,608.015 585.9,612.59 585.9,617.93 C585.9,623.39 584.025,628.025 580.275,631.835 C576.525,635.645 572.055,637.55 566.865,637.55 Z M608.76,641.6 L608.76,575.36 L602.64,575.36 L602.64,641.6 L608.76,641.6 Z M644.4,643.22 C651.42,643.22 657.66,639.95 663.12,633.41 L663.12,633.41 L663.12,641.6 L669.15,641.6 L669.15,593.81 L663.12,593.81 L663.12,602.54 C658.26,595.88 651.93,592.55 644.13,592.55 C637.35,592.55 631.53,595.025 626.67,599.975 C621.81,604.925 619.38,610.865 619.38,617.795 C619.38,624.725 621.795,630.695 626.625,635.705 C631.455,640.715 637.38,643.22 644.4,643.22 Z M644.535,637.55 C639.345,637.55 634.89,635.615 631.17,631.745 C627.45,627.875 625.59,623.3 625.59,618.02 C625.59,612.74 627.42,608.165 631.08,604.295 C634.74,600.425 639.225,598.49 644.535,598.49 C649.845,598.49 654.33,600.365 657.99,604.115 C661.65,607.865 663.48,612.47 663.48,617.93 C663.48,623.57 661.62,628.25 657.9,631.97 C654.18,635.69 649.725,637.55 644.535,637.55 Z M696.24,643.22 C697.68,643.22 699.66,643.01 702.18,642.59 L702.18,642.59 L702.18,637.37 L698.49,637.37 C696.75,637.37 695.67,637.22 695.25,636.92 C694.83,636.62 694.62,635.66 694.62,634.04 L694.62,634.04 L694.62,599.03 L704.34,599.03 L704.34,593.81 L694.62,593.81 L694.62,575.36 L688.41,575.36 L688.41,593.81 L679.95,593.81 L679.95,599.03 L688.41,599.03 L688.41,635.03 C688.41,637.85 689.04,639.92 690.3,641.24 C691.56,642.56 693.54,643.22 696.24,643.22 Z M736.11,643.22 C746.19,643.22 753.81,638.42 758.97,628.82 L758.97,628.82 L753.75,626.12 C749.73,633.74 743.67,637.55 735.57,637.55 C730.65,637.55 726.465,635.795 723.015,632.285 C719.565,628.775 717.75,624.14 717.57,618.38 L717.57,618.38 L760.59,618.38 C760.41,610.4 757.965,604.1 753.255,599.48 C748.545,594.86 742.725,592.55 735.795,592.55 C728.865,592.55 723.045,595.04 718.335,600.02 C713.625,605 711.27,610.97 711.27,617.93 C711.27,624.89 713.61,630.845 718.29,635.795 C722.97,640.745 728.91,643.22 736.11,643.22 Z M753.75,613.07 L718.2,613.07 C720.96,603.35 726.84,598.49 735.84,598.49 C740.22,598.49 744.09,599.78 747.45,602.36 C750.81,604.94 752.91,608.51 753.75,613.07 L753.75,613.07 Z M781.65,643.22 C785.73,643.22 789.165,641.84 791.955,639.08 C794.745,636.32 796.14,632.93 796.14,628.91 C796.14,625.73 795.195,623.045 793.305,620.855 C791.415,618.665 788.67,616.625 785.07,614.735 C781.47,612.845 778.935,611.225 777.465,609.875 C775.995,608.525 775.26,606.905 775.26,605.015 C775.26,603.125 775.95,601.535 777.33,600.245 C778.71,598.955 780.42,598.31 782.46,598.31 C785.58,598.31 788.79,599.9 792.09,603.08 L792.09,603.08 L796.05,599.03 C791.67,594.71 787.425,592.55 783.315,592.55 C779.205,592.55 775.905,593.75 773.415,596.15 C770.925,598.55 769.68,601.445 769.68,604.835 C769.68,608.225 770.565,610.985 772.335,613.115 C774.105,615.245 776.775,617.21 780.345,619.01 C783.915,620.81 786.465,622.415 787.995,623.825 C789.525,625.235 790.29,627.035 790.29,629.225 C790.29,631.415 789.42,633.32 787.68,634.94 C785.94,636.56 783.84,637.37 781.38,637.37 C777.9,637.37 774.57,635.6 771.39,632.06 L771.39,632.06 L767.52,636.38 C769.26,638.54 771.375,640.22 773.865,641.42 C776.355,642.62 778.95,643.22 781.65,643.22 Z" id="shelter·in·plates" fill="#FFFFFF"></path>
            <g id="logo-symbol_1_" transform="translate(192.000000, 0.000000)" fill="#E9B776">
                <path d="M112.16,97.799 C115.435,102.086 121.564,102.905 125.849,99.632 C149.838,81.303 178.511,71.615 208.766,71.615 C284.159,71.615 345.494,132.949 345.494,208.34 C345.494,283.73 284.16,345.064 208.766,345.064 C133.378,345.064 72.043,283.732 72.043,208.34 C72.043,178.084 81.73,149.411 100.06,125.421 C103.335,121.138 102.515,115.007 98.228,111.733 C93.943,108.458 87.814,109.278 84.539,113.565 C63.586,140.989 52.512,173.762 52.512,208.34 C52.512,294.499 122.608,364.595 208.763,364.595 C294.923,364.595 365.021,294.498 365.021,208.34 C365.021,122.181 294.922,52.084 208.763,52.084 C174.185,52.084 141.413,63.158 113.992,84.11 C109.708,87.385 108.885,93.513 112.16,97.799 L112.16,97.799 Z M208.766,0 C93.891,0 0.426,93.46 0.426,208.34 C0.426,323.22 93.887,416.681 208.766,416.681 C323.647,416.681 417.111,323.222 417.111,208.34 C417.111,93.46 323.646,0 208.766,0 Z M208.766,397.147 C104.661,397.147 19.958,312.449 19.958,208.336 C19.958,104.227 104.657,19.527 208.766,19.527 C312.875,19.527 397.578,104.227 397.578,208.336 C397.578,312.449 312.875,397.147 208.766,397.147 Z" id="Shape"></path>
            </g>
        </g>
    </g>
</svg>