<?xml version="1.0" encoding="UTF-8"?>
<svg width="1771px" height="448px" viewBox="0 0 1771 448" version="1.1" xmlns="http://www.w3.org/2000/svg" xmlns:xlink="http://www.w3.org/1999/xlink">
    <!-- Generator: Sketch 61.2 (89653) - https://sketch.com -->
    <title>logo-superimposed-dark-fulltext</title>
    <desc>Created with Sketch.</desc>
    <g id="logo" stroke="none" stroke-width="1" fill="none" fill-rule="evenodd">
        <g id="logo-superimposed-dark-fulltext" transform="translate(-5.000000, 0.000000)" fill-rule="nonzero">
            <g id="logo-symbol" transform="translate(687.190191, 0.000000)" fill="#E9B776">
                <path d="M119.863277,105.434644 C123.376039,110.034074 129.951659,110.911761 134.548877,107.401014 C160.284215,87.7417124 191.041761,77.3516022 223.497802,77.3516022 C304.374849,77.3516022 370.172081,143.135608 370.172081,224 C370.172081,304.862926 304.376314,370.646933 223.497802,370.646933 C142.625151,370.646933 76.8279189,304.861461 76.8279189,224 C76.8279189,191.547573 87.2196552,160.793374 106.883499,135.062063 C110.396261,130.468495 109.516971,123.890973 104.918287,120.380227 C100.321069,116.868015 93.7454486,117.747167 90.2326871,122.345131 C67.7551169,151.760088 55.8759159,186.910047 55.8759159,223.998535 C55.8759159,316.412052 131.071287,391.595657 223.496336,391.595657 C315.924316,391.595657 391.122619,316.410587 391.122619,223.998535 C391.122619,131.586483 315.925782,56.3999472 223.496336,56.3999472 C186.403509,56.3999472 151.246585,68.2758241 121.829955,90.7484119 C117.232736,94.2650195 116.350516,100.838145 119.863277,105.434644 L119.863277,105.434644 Z M223.497802,0.537170264 C100.263915,0.537170264 0,100.781 0,224 C0,347.219 100.260984,447.46283 223.497802,447.46283 C346.737551,447.46283 447,347.219 447,224 C447,100.781 346.737551,0.537170264 223.497802,0.537170264 Z M223.497802,426.51264 C111.816313,426.51264 20.9534685,335.666944 20.9534685,223.998535 C20.9534685,112.333056 111.814848,21.4844295 223.497802,21.4844295 C335.182221,21.4844295 426.046532,112.331591 426.046532,223.998535 C426.046532,335.665478 335.182221,426.51264 223.497802,426.51264 Z" id="Shape"></path>
            </g>
            <path d="M34.9601914,284.02 C43.5735247,284.02 50.8251914,281.106667 56.7151914,275.28 C62.6051914,269.453333 65.5501914,262.296667 65.5501914,253.81 C65.5501914,247.096667 63.5551914,241.428333 59.5651914,236.805 C55.5751914,232.181667 49.7801914,227.875 42.1801914,223.885 C34.5801914,219.895 29.2285247,216.475 26.1251914,213.625 C23.0218581,210.775 21.4701914,207.355 21.4701914,203.365 C21.4701914,199.375 22.9268581,196.018333 25.8401914,193.295 C28.7535247,190.571667 32.3635247,189.21 36.6701914,189.21 C43.2568581,189.21 50.0335247,192.566667 57.0001914,199.28 L57.0001914,199.28 L65.3601914,190.73 C56.1135247,181.61 47.1518581,177.05 38.4751914,177.05 C29.7985247,177.05 22.8318581,179.583333 17.5751914,184.65 C12.3185247,189.716667 9.69019139,195.828333 9.69019139,202.985 C9.69019139,210.141667 11.5585247,215.968333 15.2951914,220.465 C19.0318581,224.961667 24.6685247,229.11 32.2051914,232.91 C39.7418581,236.71 45.1251914,240.098333 48.3551914,243.075 C51.5851914,246.051667 53.2001914,249.851667 53.2001914,254.475 C53.2001914,259.098333 51.3635247,263.12 47.6901914,266.54 C44.0168581,269.96 39.5835247,271.67 34.3901914,271.67 C27.0435247,271.67 20.0135247,267.933333 13.3001914,260.46 L13.3001914,260.46 L5.13019139,269.58 C8.80352472,274.14 13.2685247,277.686667 18.5251914,280.22 C23.7818581,282.753333 29.2601914,284.02 34.9601914,284.02 Z M101.460191,280.6 L101.460683,242.851951 C101.479677,229.433362 102.049513,220.482712 103.170191,216 C104.310191,211.44 106.526858,207.006667 109.820191,202.7 C113.113525,198.393333 117.103525,195.036667 121.790191,192.63 C126.476858,190.223333 131.385191,189.02 136.515191,189.02 C141.645191,189.02 146.015191,189.938333 149.625191,191.775 C153.235191,193.611667 156.116858,196.303333 158.270191,199.85 C160.423525,203.396667 161.816858,207.133333 162.450191,211.06 C163.083525,214.986667 163.400191,222.143333 163.400191,232.53 L163.400191,280.6 L176.510191,280.6 L176.510191,228.73 C176.510191,215.81 175.243525,206.025 172.710191,199.375 C170.176858,192.725 165.870191,187.341667 159.790191,183.225 C153.710191,179.108333 146.870191,177.05 139.270191,177.05 C124.450191,177.05 111.846858,183.953333 101.460191,197.76 L101.460191,197.76 L101.460191,140.76 L88.3501914,140.76 L88.3501914,280.6 L101.460191,280.6 Z M251.940191,284.02 C273.220191,284.02 289.306858,273.886667 300.200191,253.62 L300.200191,253.62 L289.180191,247.92 C280.693525,264.006667 267.900191,272.05 250.800191,272.05 C240.413525,272.05 231.578525,268.345 224.295191,260.935 C217.011858,253.525 213.180191,243.74 212.800191,231.58 L212.800191,231.58 L303.620191,231.58 C303.240191,214.733333 298.078525,201.433333 288.135191,191.68 C278.191858,181.926667 265.905191,177.05 251.275191,177.05 C236.645191,177.05 224.358525,182.306667 214.415191,192.82 C204.471858,203.333333 199.500191,215.936667 199.500191,230.63 C199.500191,245.323333 204.440191,257.895 214.320191,268.345 C224.200191,278.795 236.740191,284.02 251.940191,284.02 Z M289.180191,220.37 L214.130191,220.37 C219.956858,199.85 232.370191,189.59 251.370191,189.59 C260.616858,189.59 268.786858,192.313333 275.880191,197.76 C282.973525,203.206667 287.406858,210.743333 289.180191,220.37 L289.180191,220.37 Z M338.770191,280.6 L338.770191,140.76 L325.850191,140.76 L325.850191,280.6 L338.770191,280.6 Z M393.680191,284.02 C396.720191,284.02 400.900191,283.576667 406.220191,282.69 L406.220191,282.69 L406.220191,271.67 L398.430191,271.67 C394.756858,271.67 392.476858,271.353333 391.590191,270.72 C390.703525,270.086667 390.260191,268.06 390.260191,264.64 L390.260191,264.64 L390.260191,190.73 L410.780191,190.73 L410.780191,179.71 L390.260191,179.71 L390.260191,140.76 L377.150191,140.76 L377.150191,179.71 L359.290191,179.71 L359.290191,190.73 L377.150191,190.73 L377.150191,266.73 C377.150191,272.683333 378.480191,277.053333 381.140191,279.84 C383.800191,282.626667 387.980191,284.02 393.680191,284.02 Z M477.850191,284.02 C499.130191,284.02 515.216858,273.886667 526.110191,253.62 L526.110191,253.62 L515.090191,247.92 C506.603525,264.006667 493.810191,272.05 476.710191,272.05 C466.323525,272.05 457.488525,268.345 450.205191,260.935 C442.921858,253.525 439.090191,243.74 438.710191,231.58 L438.710191,231.58 L529.530191,231.58 C529.150191,214.733333 523.988525,201.433333 514.045191,191.68 C504.101858,181.926667 491.815191,177.05 477.185191,177.05 C462.555191,177.05 450.268525,182.306667 440.325191,192.82 C430.381858,203.333333 425.410191,215.936667 425.410191,230.63 C425.410191,245.323333 430.350191,257.895 440.230191,268.345 C450.110191,278.795 462.650191,284.02 477.850191,284.02 Z M515.090191,220.37 L440.040191,220.37 C445.866858,199.85 458.280191,189.59 477.280191,189.59 C486.526858,189.59 494.696858,192.313333 501.790191,197.76 C508.883525,203.206667 513.316858,210.743333 515.090191,220.37 L515.090191,220.37 Z M562.020191,280.6 L562.020191,246.4 C562.020191,229.553333 562.843525,217.931667 564.490191,211.535 C566.136858,205.138333 568.701858,199.913333 572.185191,195.86 C575.668525,191.806667 579.373525,189.78 583.300191,189.78 C585.326858,189.78 587.290191,190.35 589.190191,191.49 L589.190191,191.49 L596.030191,180.47 C591.850191,178.19 587.701858,177.05 583.585191,177.05 C579.468525,177.05 575.731858,178.443333 572.375191,181.23 C569.018525,184.016667 565.566858,188.386667 562.020191,194.34 L562.020191,194.34 L562.020191,179.71 L548.720191,179.71 L548.720191,280.6 L562.020191,280.6 Z M853.005191,162.23 C855.981858,162.23 858.515191,161.185 860.605191,159.095 C862.695191,157.005 863.740191,154.471667 863.740191,151.495 C863.740191,148.518333 862.695191,145.985 860.605191,143.895 C858.515191,141.805 855.981858,140.76 853.005191,140.76 C850.028525,140.76 847.495191,141.836667 845.405191,143.99 C843.315191,146.143333 842.270191,148.676667 842.270191,151.59 C842.270191,154.376667 843.315191,156.846667 845.405191,159 C847.495191,161.153333 850.028525,162.23 853.005191,162.23 Z M859.560191,280.6 L859.560191,179.71 L846.450191,179.71 L846.450191,280.6 L859.560191,280.6 Z M899.460191,280.6 L899.460683,242.851951 C899.479677,229.433362 900.049513,220.482712 901.170191,216 C902.310191,211.44 904.526858,207.006667 907.820191,202.7 C911.113525,198.393333 915.103525,195.036667 919.790191,192.63 C924.476858,190.223333 929.258525,189.02 934.135191,189.02 C939.011858,189.02 943.160191,189.78 946.580191,191.3 C950.000191,192.82 952.818525,195.036667 955.035191,197.95 C957.251858,200.863333 958.898525,204.41 959.975191,208.59 C961.051858,212.77 961.590191,220.75 961.590191,232.53 L961.590191,232.53 L961.590191,280.6 L974.510191,280.6 L974.510191,228.73 C974.510191,215.81 973.243525,206.025 970.710191,199.375 C968.176858,192.725 963.870191,187.341667 957.790191,183.225 C951.710191,179.108333 944.870191,177.05 937.270191,177.05 C922.450191,177.05 909.846858,183.953333 899.460191,197.76 L899.460191,197.76 L899.460191,179.71 L886.350191,179.71 L886.350191,280.6 L899.460191,280.6 Z M1252.86019,317.46 L1252.86019,263.31 C1264.38686,277.116667 1277.87686,284.02 1293.33019,284.02 C1307.51686,284.02 1319.67686,278.763333 1329.81019,268.25 C1339.94352,257.736667 1345.01019,245.133333 1345.01019,230.44 C1345.01019,215.746667 1339.88019,203.175 1329.62019,192.725 C1319.36019,182.275 1307.13686,177.05 1292.95019,177.05 C1276.48352,177.05 1263.12019,184.08 1252.86019,198.14 L1252.86019,198.14 L1252.86019,179.71 L1239.94019,179.71 L1239.94019,317.46 L1252.86019,317.46 Z M1291.90519,272.05 C1280.94852,272.05 1271.54352,268.091667 1263.69019,260.175 C1255.83686,252.258333 1251.91019,242.473333 1251.91019,230.82 C1251.91019,219.166667 1255.74186,209.381667 1263.40519,201.465 C1271.06852,193.548333 1280.53686,189.59 1291.81019,189.59 C1303.08352,189.59 1312.61519,193.611667 1320.40519,201.655 C1328.19519,209.698333 1332.09019,219.356667 1332.09019,230.63 C1332.09019,242.156667 1328.13186,251.941667 1320.21519,259.985 C1312.29852,268.028333 1302.86186,272.05 1291.90519,272.05 Z M1380.35019,280.6 L1380.35019,140.76 L1367.43019,140.76 L1367.43019,280.6 L1380.35019,280.6 Z M1455.59019,284.02 C1470.41019,284.02 1483.58352,277.116667 1495.11019,263.31 L1495.11019,263.31 L1495.11019,280.6 L1507.84019,280.6 L1507.84019,179.71 L1495.11019,179.71 L1495.11019,198.14 C1484.85019,184.08 1471.48686,177.05 1455.02019,177.05 C1440.70686,177.05 1428.42019,182.275 1418.16019,192.725 C1407.90019,203.175 1402.77019,215.715 1402.77019,230.345 C1402.77019,244.975 1407.86852,257.578333 1418.06519,268.155 C1428.26186,278.731667 1440.77019,284.02 1455.59019,284.02 Z M1455.87519,272.05 C1444.91852,272.05 1435.51352,267.965 1427.66019,259.795 C1419.80686,251.625 1415.88019,241.966667 1415.88019,230.82 C1415.88019,219.673333 1419.74352,210.015 1427.47019,201.845 C1435.19686,193.675 1444.66519,189.59 1455.87519,189.59 C1467.08519,189.59 1476.55352,193.548333 1484.28019,201.465 C1492.00686,209.381667 1495.87019,219.103333 1495.87019,230.63 C1495.87019,242.536667 1491.94352,252.416667 1484.09019,260.27 C1476.23686,268.123333 1466.83186,272.05 1455.87519,272.05 Z M1565.03019,284.02 C1568.07019,284.02 1572.25019,283.576667 1577.57019,282.69 L1577.57019,282.69 L1577.57019,271.67 L1569.78019,271.67 C1566.10686,271.67 1563.82686,271.353333 1562.94019,270.72 C1562.05352,270.086667 1561.61019,268.06 1561.61019,264.64 L1561.61019,264.64 L1561.61019,190.73 L1582.13019,190.73 L1582.13019,179.71 L1561.61019,179.71 L1561.61019,140.76 L1548.50019,140.76 L1548.50019,179.71 L1530.64019,179.71 L1530.64019,190.73 L1548.50019,190.73 L1548.50019,266.73 C1548.50019,272.683333 1549.83019,277.053333 1552.49019,279.84 C1555.15019,282.626667 1559.33019,284.02 1565.03019,284.02 Z M1649.20019,284.02 C1670.48019,284.02 1686.56686,273.886667 1697.46019,253.62 L1697.46019,253.62 L1686.44019,247.92 C1677.95352,264.006667 1665.16019,272.05 1648.06019,272.05 C1637.67352,272.05 1628.83852,268.345 1621.55519,260.935 C1614.27186,253.525 1610.44019,243.74 1610.06019,231.58 L1610.06019,231.58 L1700.88019,231.58 C1700.50019,214.733333 1695.33852,201.433333 1685.39519,191.68 C1675.45186,181.926667 1663.16519,177.05 1648.53519,177.05 C1633.90519,177.05 1621.61852,182.306667 1611.67519,192.82 C1601.73186,203.333333 1596.76019,215.936667 1596.76019,230.63 C1596.76019,245.323333 1601.70019,257.895 1611.58019,268.345 C1621.46019,278.795 1634.00019,284.02 1649.20019,284.02 Z M1686.44019,220.37 L1611.39019,220.37 C1617.21686,199.85 1629.63019,189.59 1648.63019,189.59 C1657.87686,189.59 1666.04686,192.313333 1673.14019,197.76 C1680.23352,203.206667 1684.66686,210.743333 1686.44019,220.37 L1686.44019,220.37 Z M1745.34019,284.02 C1753.95352,284.02 1761.20519,281.106667 1767.09519,275.28 C1772.98519,269.453333 1775.93019,262.296667 1775.93019,253.81 C1775.93019,247.096667 1773.93519,241.428333 1769.94519,236.805 C1765.95519,232.181667 1760.16019,227.875 1752.56019,223.885 C1744.96019,219.895 1739.60852,216.475 1736.50519,213.625 C1733.40186,210.775 1731.85019,207.355 1731.85019,203.365 C1731.85019,199.375 1733.30686,196.018333 1736.22019,193.295 C1739.13352,190.571667 1742.74352,189.21 1747.05019,189.21 C1753.63686,189.21 1760.41352,192.566667 1767.38019,199.28 L1767.38019,199.28 L1775.74019,190.73 C1766.49352,181.61 1757.53186,177.05 1748.85519,177.05 C1740.17852,177.05 1733.21186,179.583333 1727.95519,184.65 C1722.69852,189.716667 1720.07019,195.828333 1720.07019,202.985 C1720.07019,210.141667 1721.93852,215.968333 1725.67519,220.465 C1729.41186,224.961667 1735.04852,229.11 1742.58519,232.91 C1750.12186,236.71 1755.50519,240.098333 1758.73519,243.075 C1761.96519,246.051667 1763.58019,249.851667 1763.58019,254.475 C1763.58019,259.098333 1761.74352,263.12 1758.07019,266.54 C1754.39686,269.96 1749.96352,271.67 1744.77019,271.67 C1737.42352,271.67 1730.39352,267.933333 1723.68019,260.46 L1723.68019,260.46 L1715.51019,269.58 C1719.18352,274.14 1723.64852,277.686667 1728.90519,280.22 C1734.16186,282.753333 1739.64019,284.02 1745.34019,284.02 Z" id="shelterinplates" fill="#000000"></path>
        </g>
    </g>
</svg>