<?xml version="1.0" encoding="UTF-8"?>
<svg width="1470px" height="306px" viewBox="0 0 1470 306" version="1.1" xmlns="http://www.w3.org/2000/svg" xmlns:xlink="http://www.w3.org/1999/xlink">
    <!-- Generator: Sketch 61.2 (89653) - https://sketch.com -->
    <title>logo-horizontal-dark-fulltext-shorter</title>
    <desc>Created with Sketch.</desc>
    <g id="logo" stroke="none" stroke-width="1" fill="none" fill-rule="evenodd">
        <g id="logo-horizontal-dark-fulltext-shorter" fill-rule="nonzero">
            <g id="logo-symbol" fill="#E9B776">
                <path d="M81.791,71.59 C84.188,74.729 88.675,75.328 91.812,72.932 C109.373,59.515 130.361,52.424 152.508,52.424 C207.696,52.424 252.594,97.32 252.594,152.508 C252.594,207.695 207.697,252.591 152.508,252.591 C97.323,252.591 52.425,207.694 52.425,152.508 C52.425,130.36 59.516,109.371 72.934,91.81 C75.331,88.675 74.731,84.186 71.593,81.79 C68.456,79.393 63.969,79.993 61.572,83.131 C46.234,103.206 38.128,127.195 38.128,152.507 C38.128,215.577 89.439,266.888 152.507,266.888 C215.577,266.888 266.89,215.576 266.89,152.507 C266.89,89.438 215.578,38.125 152.507,38.125 C127.196,38.125 103.206,46.23 83.133,61.567 C79.996,63.967 79.394,68.453 81.791,71.59 L81.791,71.59 Z M152.508,0 C68.417,0 0,68.414 0,152.508 C0,236.602 68.415,305.016 152.508,305.016 C236.603,305.016 305.019,236.602 305.019,152.508 C305.019,68.414 236.603,0 152.508,0 Z M152.508,290.718 C76.3,290.718 14.298,228.718 14.298,152.507 C14.298,76.298 76.299,14.296 152.508,14.296 C228.718,14.296 290.721,76.297 290.721,152.507 C290.721,228.717 228.718,290.718 152.508,290.718 Z" id="Shape"></path>
            </g>
            <path d="M1056.2,223.5 L1056.2,180.75 C1065.3,191.65 1075.95,197.1 1088.15,197.1 C1099.35,197.1 1108.95,192.95 1116.95,184.65 C1124.95,176.35 1128.95,166.4 1128.95,154.8 C1128.95,143.2 1124.9,133.275 1116.8,125.025 C1108.7,116.775 1099.05,112.65 1087.85,112.65 C1074.85,112.65 1064.3,118.2 1056.2,129.3 L1056.2,129.3 L1056.2,114.75 L1046,114.75 L1046,223.5 L1056.2,223.5 Z M1087.025,187.65 C1078.375,187.65 1070.95,184.525 1064.75,178.275 C1058.55,172.025 1055.45,164.3 1055.45,155.1 C1055.45,145.9 1058.475,138.175 1064.525,131.925 C1070.575,125.675 1078.05,122.55 1086.95,122.55 C1095.85,122.55 1103.375,125.725 1109.525,132.075 C1115.675,138.425 1118.75,146.05 1118.75,154.95 C1118.75,164.05 1115.625,171.775 1109.375,178.125 C1103.125,184.475 1095.675,187.65 1087.025,187.65 Z M1156.85,194.4 L1156.85,84 L1146.65,84 L1146.65,194.4 L1156.85,194.4 Z M1216.25,197.1 C1227.95,197.1 1238.35,191.65 1247.45,180.75 L1247.45,180.75 L1247.45,194.4 L1257.5,194.4 L1257.5,114.75 L1247.45,114.75 L1247.45,129.3 C1239.35,118.2 1228.8,112.65 1215.8,112.65 C1204.5,112.65 1194.8,116.775 1186.7,125.025 C1178.6,133.275 1174.55,143.175 1174.55,154.725 C1174.55,166.275 1178.575,176.225 1186.625,184.575 C1194.675,192.925 1204.55,197.1 1216.25,197.1 Z M1216.475,187.65 C1207.825,187.65 1200.4,184.425 1194.2,177.975 C1188,171.525 1184.9,163.9 1184.9,155.1 C1184.9,146.3 1187.95,138.675 1194.05,132.225 C1200.15,125.775 1207.625,122.55 1216.475,122.55 C1225.325,122.55 1232.8,125.675 1238.9,131.925 C1245,138.175 1248.05,145.85 1248.05,154.95 C1248.05,164.35 1244.95,172.15 1238.75,178.35 C1232.55,184.55 1225.125,187.65 1216.475,187.65 Z M1302.65,197.1 C1305.05,197.1 1308.35,196.75 1312.55,196.05 L1312.55,196.05 L1312.55,187.35 L1306.4,187.35 C1303.5,187.35 1301.7,187.1 1301,186.6 C1300.3,186.1 1299.95,184.5 1299.95,181.8 L1299.95,181.8 L1299.95,123.45 L1316.15,123.45 L1316.15,114.75 L1299.95,114.75 L1299.95,84 L1289.6,84 L1289.6,114.75 L1275.5,114.75 L1275.5,123.45 L1289.6,123.45 L1289.6,183.45 C1289.6,188.15 1290.65,191.6 1292.75,193.8 C1294.85,196 1298.15,197.1 1302.65,197.1 Z M1369.1,197.1 C1385.9,197.1 1398.6,189.1 1407.2,173.1 L1407.2,173.1 L1398.5,168.6 C1391.8,181.3 1381.7,187.65 1368.2,187.65 C1360,187.65 1353.025,184.725 1347.275,178.875 C1341.525,173.025 1338.5,165.3 1338.2,155.7 L1338.2,155.7 L1409.9,155.7 C1409.6,142.4 1405.525,131.9 1397.675,124.2 C1389.825,116.5 1380.125,112.65 1368.575,112.65 C1357.025,112.65 1347.325,116.8 1339.475,125.1 C1331.625,133.4 1327.7,143.35 1327.7,154.95 C1327.7,166.55 1331.6,176.475 1339.4,184.725 C1347.2,192.975 1357.1,197.1 1369.1,197.1 Z M1398.5,146.85 L1339.25,146.85 C1343.85,130.65 1353.65,122.55 1368.65,122.55 C1375.95,122.55 1382.4,124.7 1388,129 C1393.6,133.3 1397.1,139.25 1398.5,146.85 L1398.5,146.85 Z M1445,197.1 C1451.8,197.1 1457.525,194.8 1462.175,190.2 C1466.825,185.6 1469.15,179.95 1469.15,173.25 C1469.15,167.95 1467.575,163.475 1464.425,159.825 C1461.275,156.175 1456.7,152.775 1450.7,149.625 C1444.7,146.475 1440.475,143.775 1438.025,141.525 C1435.575,139.275 1434.35,136.575 1434.35,133.425 C1434.35,130.275 1435.5,127.625 1437.8,125.475 C1440.1,123.325 1442.95,122.25 1446.35,122.25 C1451.55,122.25 1456.9,124.9 1462.4,130.2 L1462.4,130.2 L1469,123.45 C1461.7,116.25 1454.625,112.65 1447.775,112.65 C1440.925,112.65 1435.425,114.65 1431.275,118.65 C1427.125,122.65 1425.05,127.475 1425.05,133.125 C1425.05,138.775 1426.525,143.375 1429.475,146.925 C1432.425,150.475 1436.875,153.75 1442.825,156.75 C1448.775,159.75 1453.025,162.425 1455.575,164.775 C1458.125,167.125 1459.4,170.125 1459.4,173.775 C1459.4,177.425 1457.95,180.6 1455.05,183.3 C1452.15,186 1448.65,187.35 1444.55,187.35 C1438.75,187.35 1433.2,184.4 1427.9,178.5 L1427.9,178.5 L1421.45,185.7 C1424.35,189.3 1427.875,192.1 1432.025,194.1 C1436.175,196.1 1440.5,197.1 1445,197.1 Z" id="plates" fill="#000000"></path>
            <path d="M850.1,170.1 L850.1,155.7 L836,155.7 L836,170.1 L850.1,170.1 Z M883.575,115.95 C885.925,115.95 887.925,115.125 889.575,113.475 C891.225,111.825 892.05,109.825 892.05,107.475 C892.05,105.125 891.225,103.125 889.575,101.475 C887.925,99.825 885.925,99 883.575,99 C881.225,99 879.225,99.85 877.575,101.55 C875.925,103.25 875.1,105.25 875.1,107.55 C875.1,109.75 875.925,111.7 877.575,113.4 C879.225,115.1 881.225,115.95 883.575,115.95 Z M888.75,209.4 L888.75,129.75 L878.4,129.75 L878.4,209.4 L888.75,209.4 Z M920.25,209.4 L920.250499,179.525203 C920.267474,168.972504 920.717308,161.930769 921.6,158.4 C922.5,154.8 924.25,151.3 926.85,147.9 C929.45,144.5 932.6,141.85 936.3,139.95 C940,138.05 943.775,137.1 947.625,137.1 C951.475,137.1 954.75,137.7 957.45,138.9 C960.15,140.1 962.375,141.85 964.125,144.15 C965.875,146.45 967.175,149.25 968.025,152.55 C968.875,155.85 969.3,162.15 969.3,171.45 L969.3,171.45 L969.3,209.4 L979.5,209.4 L979.5,168.45 C979.5,158.25 978.5,150.525 976.5,145.275 C974.5,140.025 971.1,135.775 966.3,132.525 C961.5,129.275 956.1,127.65 950.1,127.65 C938.4,127.65 928.45,133.1 920.25,144 L920.25,144 L920.25,129.75 L909.9,129.75 L909.9,209.4 L920.25,209.4 Z M1021.6,170.1 L1021.6,155.7 L1007.5,155.7 L1007.5,170.1 L1021.6,170.1 Z" id="·in·" fill="#000000"></path>
            <path d="M368.55,209.1 C375.35,209.1 381.075,206.8 385.725,202.2 C390.375,197.6 392.7,191.95 392.7,185.25 C392.7,179.95 391.125,175.475 387.975,171.825 C384.825,168.175 380.25,164.775 374.25,161.625 C368.25,158.475 364.025,155.775 361.575,153.525 C359.125,151.275 357.9,148.575 357.9,145.425 C357.9,142.275 359.05,139.625 361.35,137.475 C363.65,135.325 366.5,134.25 369.9,134.25 C375.1,134.25 380.45,136.9 385.95,142.2 L385.95,142.2 L392.55,135.45 C385.25,128.25 378.175,124.65 371.325,124.65 C364.475,124.65 358.975,126.65 354.825,130.65 C350.675,134.65 348.6,139.475 348.6,145.125 C348.6,150.775 350.075,155.375 353.025,158.925 C355.975,162.475 360.425,165.75 366.375,168.75 C372.325,171.75 376.575,174.425 379.125,176.775 C381.675,179.125 382.95,182.125 382.95,185.775 C382.95,189.425 381.5,192.6 378.6,195.3 C375.7,198 372.2,199.35 368.1,199.35 C362.3,199.35 356.75,196.4 351.45,190.5 L351.45,190.5 L345,197.7 C347.9,201.3 351.425,204.1 355.575,206.1 C359.725,208.1 364.05,209.1 368.55,209.1 Z M421.05,206.4 L421.05,177.15 C421.05,166.25 421.5,159 422.4,155.4 C423.3,151.8 425.05,148.3 427.65,144.9 C430.25,141.5 433.4,138.85 437.1,136.95 C440.8,135.05 444.675,134.1 448.725,134.1 C452.775,134.1 456.225,134.825 459.075,136.275 C461.925,137.725 464.2,139.85 465.9,142.65 C467.6,145.45 468.7,148.4 469.2,151.5 C469.7,154.6 469.95,160.25 469.95,168.45 L469.95,168.45 L469.95,206.4 L480.3,206.4 L480.3,165.45 C480.3,155.25 479.3,147.525 477.3,142.275 C475.3,137.025 471.9,132.775 467.1,129.525 C462.3,126.275 456.9,124.65 450.9,124.65 C439.2,124.65 429.25,130.1 421.05,141 L421.05,141 L421.05,96 L410.7,96 L410.7,206.4 L421.05,206.4 Z M539.85,209.1 C556.65,209.1 569.35,201.1 577.95,185.1 L577.95,185.1 L569.25,180.6 C562.55,193.3 552.45,199.65 538.95,199.65 C530.75,199.65 523.775,196.725 518.025,190.875 C512.275,185.025 509.25,177.3 508.95,167.7 L508.95,167.7 L580.65,167.7 C580.35,154.4 576.275,143.9 568.425,136.2 C560.575,128.5 550.875,124.65 539.325,124.65 C527.775,124.65 518.075,128.8 510.225,137.1 C502.375,145.4 498.45,155.35 498.45,166.95 C498.45,178.55 502.35,188.475 510.15,196.725 C517.95,204.975 527.85,209.1 539.85,209.1 Z M569.25,158.85 L510,158.85 C514.6,142.65 524.4,134.55 539.4,134.55 C546.7,134.55 553.15,136.7 558.75,141 C564.35,145.3 567.85,151.25 569.25,158.85 L569.25,158.85 Z M608.4,206.4 L608.4,96 L598.2,96 L598.2,206.4 L608.4,206.4 Z M651.75,209.1 C654.15,209.1 657.45,208.75 661.65,208.05 L661.65,208.05 L661.65,199.35 L655.5,199.35 C652.6,199.35 650.8,199.1 650.1,198.6 C649.4,198.1 649.05,196.5 649.05,193.8 L649.05,193.8 L649.05,135.45 L665.25,135.45 L665.25,126.75 L649.05,126.75 L649.05,96 L638.7,96 L638.7,126.75 L624.6,126.75 L624.6,135.45 L638.7,135.45 L638.7,195.45 C638.7,200.15 639.75,203.6 641.85,205.8 C643.95,208 647.25,209.1 651.75,209.1 Z M718.2,209.1 C735,209.1 747.7,201.1 756.3,185.1 L756.3,185.1 L747.6,180.6 C740.9,193.3 730.8,199.65 717.3,199.65 C709.1,199.65 702.125,196.725 696.375,190.875 C690.625,185.025 687.6,177.3 687.3,167.7 L687.3,167.7 L759,167.7 C758.7,154.4 754.625,143.9 746.775,136.2 C738.925,128.5 729.225,124.65 717.675,124.65 C706.125,124.65 696.425,128.8 688.575,137.1 C680.725,145.4 676.8,155.35 676.8,166.95 C676.8,178.55 680.7,188.475 688.5,196.725 C696.3,204.975 706.2,209.1 718.2,209.1 Z M747.6,158.85 L688.35,158.85 C692.95,142.65 702.75,134.55 717.75,134.55 C725.05,134.55 731.5,136.7 737.1,141 C742.7,145.3 746.2,151.25 747.6,158.85 L747.6,158.85 Z M784.65,206.4 L784.650622,178.691446 C784.673422,165.773637 785.323214,156.834821 786.6,151.875 C787.9,146.825 789.925,142.7 792.675,139.5 C795.425,136.3 798.35,134.7 801.45,134.7 C803.05,134.7 804.6,135.15 806.1,136.05 L806.1,136.05 L811.5,127.35 C808.2,125.55 804.925,124.65 801.675,124.65 C798.425,124.65 795.475,125.75 792.825,127.95 C790.175,130.15 787.45,133.6 784.65,138.3 L784.65,138.3 L784.65,126.75 L774.15,126.75 L774.15,206.4 L784.65,206.4 Z" id="shelter" fill="#000000"></path>
        </g>
    </g>
</svg>