<?xml version="1.0" encoding="UTF-8"?>
<svg width="794px" height="660px" viewBox="0 0 794 660" version="1.1" xmlns="http://www.w3.org/2000/svg" xmlns:xlink="http://www.w3.org/1999/xlink">
    <!-- Generator: Sketch 61.2 (89653) - https://sketch.com -->
    <title>logo-light-fulltext</title>
    <desc>Created with Sketch.</desc>
    <g id="logo" stroke="none" stroke-width="1" fill="none" fill-rule="evenodd">
        <g id="logo-light-fulltext" transform="translate(-2.000000, 0.000000)">
            <text id="shelter路in路plates" font-family="STHeitiSC-Light, Heiti SC" font-size="90" font-weight="300" fill="#FFFFFF">
                <tspan x="0" y="647">shelter路in路plates</tspan>
            </text>
            <g id="logo-symbol_1_" transform="translate(192.000000, 0.000000)" fill="#E9B776" fill-rule="nonzero">
                <path d="M112.16,97.799 C115.435,102.086 121.564,102.905 125.849,99.632 C149.838,81.303 178.511,71.615 208.766,71.615 C284.159,71.615 345.494,132.949 345.494,208.34 C345.494,283.73 284.16,345.064 208.766,345.064 C133.378,345.064 72.043,283.732 72.043,208.34 C72.043,178.084 81.73,149.411 100.06,125.421 C103.335,121.138 102.515,115.007 98.228,111.733 C93.943,108.458 87.814,109.278 84.539,113.565 C63.586,140.989 52.512,173.762 52.512,208.34 C52.512,294.499 122.608,364.595 208.763,364.595 C294.923,364.595 365.021,294.498 365.021,208.34 C365.021,122.181 294.922,52.084 208.763,52.084 C174.185,52.084 141.413,63.158 113.992,84.11 C109.708,87.385 108.885,93.513 112.16,97.799 L112.16,97.799 Z M208.766,0 C93.891,0 0.426,93.46 0.426,208.34 C0.426,323.22 93.887,416.681 208.766,416.681 C323.647,416.681 417.111,323.222 417.111,208.34 C417.111,93.46 323.646,0 208.766,0 Z M208.766,397.147 C104.661,397.147 19.958,312.449 19.958,208.336 C19.958,104.227 104.657,19.527 208.766,19.527 C312.875,19.527 397.578,104.227 397.578,208.336 C397.578,312.449 312.875,397.147 208.766,397.147 Z" id="Shape"></path>
            </g>
        </g>
    </g>
</svg>